# xmcd
#
# Track frame offsets: 
#        150
#        28402
#        46303
#        60959
#        75855
#        96686
#        107945
#        126562
#        148024
#        158101
#        179024
#        195611
#        213322
#        228911
#        250499
#        263085
#        280486
#        303545
#        315471
#
# Disc length: 4399 seconds
#
# Revision: 0
# Processed by: cddbd v1.5.2PL0 Copyright (c) Steve Scherf et al.
# Submitted via: ExactAudioCopy v1.1
#
DISCID=1c112d13
DTITLE=Various Artist - 1000 Klassiekers Radio 2 Vol. 02 - CD 3
DYEAR=2010
DGENRE=Pop
TTITLE0=Barry White - Let The Music Play
TTITLE1=Marvin Gaye - Sexual Healing
TTITLE2=The Blues Brothers Vocals Aretha Franklin - Think
TTITLE3=T.C. Matic - O La La La (C'Est Magnifique)
TTITLE4=Ultravox - Vienna
TTITLE5=Dave Berry - This Strange Effect
TTITLE6=Bart Kaëll - Zeil Je Voor Het Eerst
TTITLE7=Billy Paul - Me And Mrs. Jones
TTITLE8=Paul Anka - A Steel Guitar And A Glass Of Wine
TTITLE9=Emerson, Lake and Palmer - Lucky Man
TTITLE10=Jo Lemaire and Flouze - Je Suis Venue Te Dire Que Je M'En Vais
TTITLE11=Fleetwood Mac - Need Your Love So Bad
TTITLE12=Albert Hammond - The Free Electric Band
TTITLE13=Vangelis - Conquest Of Paradise
TTITLE14=Adamo - Sans Toi Ma Mie
TTITLE15=Clouseau - Nobelprijs
TTITLE16=Electric Light Orchestra - Mr. Blue Sky
TTITLE17=Supertramp - Breakfast In America
TTITLE18=John Denver - Take Me Home, Country Roads
EXTD=
EXTT0=
EXTT1=
EXTT2=
EXTT3=
EXTT4=
EXTT5=
EXTT6=
EXTT7=
EXTT8=
EXTT9=
EXTT10=
EXTT11=
EXTT12=
EXTT13=
EXTT14=
EXTT15=
EXTT16=
EXTT17=
EXTT18=
PLAYORDER=
